<mxfile host="app.diagrams.net" agent="Mozilla/5.0 (X11; Linux x86_64) AppleWebKit/537.36 (KHTML, like Gecko) Chrome/135.0.0.0 Safari/537.36" version="26.0.16">
  <diagram name="Page-1" id="0sufsYc5NJucxrmUf7al">
    <mxGraphModel dx="1364" dy="759" grid="1" gridSize="10" guides="1" tooltips="1" connect="1" arrows="1" fold="1" page="1" pageScale="1" pageWidth="1920" pageHeight="1200" math="0" shadow="0">
      <root>
        <mxCell id="0" />
        <mxCell id="1" parent="0" />
        <mxCell id="2UvYbliQ07eYhsEpa2xJ-15" value="" style="rounded=1;whiteSpace=wrap;html=1;fillColor=#dae8fc;strokeColor=#6c8ebf;" vertex="1" parent="1">
          <mxGeometry x="440" y="180" width="360" height="150" as="geometry" />
        </mxCell>
        <mxCell id="2UvYbliQ07eYhsEpa2xJ-5" value="" style="rounded=1;whiteSpace=wrap;html=1;fillColor=#e1d5e7;strokeColor=#9673a6;" vertex="1" parent="1">
          <mxGeometry x="200" y="170" width="180" height="250" as="geometry" />
        </mxCell>
        <mxCell id="2UvYbliQ07eYhsEpa2xJ-24" value="" style="edgeStyle=orthogonalEdgeStyle;rounded=0;orthogonalLoop=1;jettySize=auto;html=1;" edge="1" parent="1" source="2UvYbliQ07eYhsEpa2xJ-2" target="2UvYbliQ07eYhsEpa2xJ-21">
          <mxGeometry relative="1" as="geometry" />
        </mxCell>
        <mxCell id="2UvYbliQ07eYhsEpa2xJ-2" value="&lt;div&gt;Camera, Sensors&lt;/div&gt;" style="rounded=1;whiteSpace=wrap;html=1;fillColor=#76608a;fontColor=#ffffff;strokeColor=#432D57;" vertex="1" parent="1">
          <mxGeometry x="230" y="190" width="120" height="60" as="geometry" />
        </mxCell>
        <mxCell id="2UvYbliQ07eYhsEpa2xJ-12" style="edgeStyle=orthogonalEdgeStyle;rounded=0;orthogonalLoop=1;jettySize=auto;html=1;entryX=0.5;entryY=1;entryDx=0;entryDy=0;exitX=0.5;exitY=1;exitDx=0;exitDy=0;" edge="1" parent="1" source="2UvYbliQ07eYhsEpa2xJ-6" target="2UvYbliQ07eYhsEpa2xJ-9">
          <mxGeometry relative="1" as="geometry">
            <mxPoint x="990" y="280" as="sourcePoint" />
            <Array as="points">
              <mxPoint x="990" y="290" />
              <mxPoint x="720" y="290" />
            </Array>
          </mxGeometry>
        </mxCell>
        <mxCell id="2UvYbliQ07eYhsEpa2xJ-13" value="&amp;nbsp;Joint States&amp;nbsp;" style="edgeLabel;html=1;align=center;verticalAlign=middle;resizable=0;points=[];" vertex="1" connectable="0" parent="2UvYbliQ07eYhsEpa2xJ-12">
          <mxGeometry x="-0.0468" relative="1" as="geometry">
            <mxPoint as="offset" />
          </mxGeometry>
        </mxCell>
        <mxCell id="2UvYbliQ07eYhsEpa2xJ-6" value="Robot" style="rounded=1;whiteSpace=wrap;html=1;fillColor=#a20025;fontColor=#ffffff;strokeColor=#6F0000;" vertex="1" parent="1">
          <mxGeometry x="930" y="210" width="120" height="60" as="geometry" />
        </mxCell>
        <mxCell id="2UvYbliQ07eYhsEpa2xJ-10" style="edgeStyle=orthogonalEdgeStyle;rounded=0;orthogonalLoop=1;jettySize=auto;html=1;entryX=0;entryY=0.5;entryDx=0;entryDy=0;" edge="1" parent="1" source="2UvYbliQ07eYhsEpa2xJ-9" target="2UvYbliQ07eYhsEpa2xJ-6">
          <mxGeometry relative="1" as="geometry" />
        </mxCell>
        <mxCell id="2UvYbliQ07eYhsEpa2xJ-14" value="&amp;nbsp;Joint Commands&amp;nbsp;" style="edgeLabel;html=1;align=center;verticalAlign=middle;resizable=0;points=[];" vertex="1" connectable="0" parent="2UvYbliQ07eYhsEpa2xJ-10">
          <mxGeometry x="-0.0111" relative="1" as="geometry">
            <mxPoint as="offset" />
          </mxGeometry>
        </mxCell>
        <mxCell id="2UvYbliQ07eYhsEpa2xJ-9" value="Teleop&lt;br&gt;Controller" style="rounded=1;whiteSpace=wrap;html=1;fillColor=#1ba1e2;fontColor=#ffffff;strokeColor=#006EAF;" vertex="1" parent="1">
          <mxGeometry x="660" y="210" width="120" height="60" as="geometry" />
        </mxCell>
        <mxCell id="2UvYbliQ07eYhsEpa2xJ-26" value="" style="edgeStyle=orthogonalEdgeStyle;rounded=0;orthogonalLoop=1;jettySize=auto;html=1;" edge="1" parent="1" source="2UvYbliQ07eYhsEpa2xJ-17" target="2UvYbliQ07eYhsEpa2xJ-9">
          <mxGeometry relative="1" as="geometry" />
        </mxCell>
        <mxCell id="2UvYbliQ07eYhsEpa2xJ-27" value="Mobile&lt;div&gt;Pose&lt;/div&gt;" style="edgeLabel;html=1;align=center;verticalAlign=middle;resizable=0;points=[];labelBackgroundColor=none;" vertex="1" connectable="0" parent="2UvYbliQ07eYhsEpa2xJ-26">
          <mxGeometry x="-0.0571" relative="1" as="geometry">
            <mxPoint as="offset" />
          </mxGeometry>
        </mxCell>
        <mxCell id="2UvYbliQ07eYhsEpa2xJ-17" value="FASTAPI&lt;br&gt;Server" style="rounded=1;whiteSpace=wrap;html=1;fillColor=#1ba1e2;fontColor=#ffffff;strokeColor=#006EAF;" vertex="1" parent="1">
          <mxGeometry x="470" y="210" width="120" height="60" as="geometry" />
        </mxCell>
        <mxCell id="2UvYbliQ07eYhsEpa2xJ-23" style="edgeStyle=orthogonalEdgeStyle;rounded=0;orthogonalLoop=1;jettySize=auto;html=1;exitX=1;exitY=0.5;exitDx=0;exitDy=0;entryX=0;entryY=0.5;entryDx=0;entryDy=0;" edge="1" parent="1" source="2UvYbliQ07eYhsEpa2xJ-21" target="2UvYbliQ07eYhsEpa2xJ-17">
          <mxGeometry relative="1" as="geometry" />
        </mxCell>
        <mxCell id="2UvYbliQ07eYhsEpa2xJ-25" value="Mobile&lt;br&gt;Pose" style="edgeLabel;html=1;align=center;verticalAlign=middle;resizable=0;points=[];" vertex="1" connectable="0" parent="2UvYbliQ07eYhsEpa2xJ-23">
          <mxGeometry x="-0.1455" y="1" relative="1" as="geometry">
            <mxPoint y="-11" as="offset" />
          </mxGeometry>
        </mxCell>
        <mxCell id="2UvYbliQ07eYhsEpa2xJ-21" value="WebXR Web-App&lt;br&gt;&lt;br&gt;&lt;div&gt;(No Insatallation)&lt;/div&gt;" style="rounded=1;whiteSpace=wrap;html=1;fillColor=#76608a;fontColor=#ffffff;strokeColor=#432D57;" vertex="1" parent="1">
          <mxGeometry x="230" y="310" width="120" height="60" as="geometry" />
        </mxCell>
        <mxCell id="2UvYbliQ07eYhsEpa2xJ-28" value="Smartphone Phone" style="text;html=1;align=center;verticalAlign=middle;whiteSpace=wrap;rounded=0;" vertex="1" parent="1">
          <mxGeometry x="245" y="390" width="90" height="30" as="geometry" />
        </mxCell>
        <mxCell id="2UvYbliQ07eYhsEpa2xJ-29" value="Teleop Software" style="text;html=1;align=center;verticalAlign=middle;whiteSpace=wrap;rounded=0;" vertex="1" parent="1">
          <mxGeometry x="560" y="290" width="90" height="30" as="geometry" />
        </mxCell>
        <mxCell id="2UvYbliQ07eYhsEpa2xJ-30" value="&lt;span id=&quot;docs-internal-guid-35b3574b-7fff-0ca9-168c-9969ad5313ba&quot;&gt;&lt;p dir=&quot;ltr&quot; style=&quot;line-height: 1.2; margin-top: 0pt; margin-bottom: 0pt;&quot;&gt;&lt;span style=&quot;font-family: Calibri, sans-serif; background-color: transparent; font-variant-numeric: normal; font-variant-east-asian: normal; font-variant-alternates: normal; font-variant-position: normal; font-variant-emoji: normal; vertical-align: baseline; white-space-collapse: preserve;&quot;&gt;Smartphone Operated Robot Control&lt;/span&gt;&lt;/p&gt;&lt;/span&gt;" style="text;html=1;align=center;verticalAlign=middle;whiteSpace=wrap;rounded=0;fontSize=25;fontStyle=1" vertex="1" parent="1">
          <mxGeometry x="470" y="360" width="510" height="50" as="geometry" />
        </mxCell>
      </root>
    </mxGraphModel>
  </diagram>
</mxfile>
